<?xml version="1.0" encoding="UTF-8"?>
<svg width="276pt" version="1.1" xmlns="http://www.w3.org/2000/svg" height="162pt" viewBox="0 0 276 162" xmlns:xlink="http://www.w3.org/1999/xlink">
 <defs>
  <clipPath id="Clip0">
   <path d="M0 0 L0 161.963 L275.87 161.963 L275.87 0 L0 0 Z" transform="translate(0, 0.0361328)"/>
  </clipPath>
 </defs>
 <g id="Achtergrond">
  <g id="Groep 1" clip-path="url(#Clip0)">
   <path style="fill:#161413; fill-rule:nonzero;stroke:none;" d="M220.528 17.0684 L222.813 35.8389 L222.018 36.0762 L215.561 37.0078 L214.225 53.9795 L207.389 58.5616 L209.16 64.2032 L213.613 61.8916 L212.574 73.1729 C212.519 73.7481 212.667 74.752 212.969 76.1905 C213.397 78.2627 213.832 79.4854 214.554 80.6524 C216.352 83.5723 219.806 85.586 223.034 85.6807 L230.75 85.8936 L231.437 78.3418 L226.951 77.9405 C223.701 77.7569 223.094 77.4141 222.131 75.3584 C221.771 74.4922 221.434 73.4356 221.206 72.3555 C220.926 71.0059 220.777 69.4414 220.8 68.4034 L221.359 57.6875 L228.42 54.1866 L226.346 47.9483 L221.912 49.5059 L222.449 44.8008 L237.186 40.9893 L235.383 33.3448 L229.783 34.0723 L229.116 25.3213 C230.546 17.3135 231.582 13.8633 233.568 11.1866 C234.307 10.1221 235.248 9.33105 236.259 8.62793 C236.904 8.26171 237.892 7.85449 238.402 7.79687 C239.647 7.65722 240.371 8.45996 240.551 10.0078 C240.74 11.6543 240.015 12.8145 238.211 13.6055 L238.493 21.5176 C243.425 20.9639 245.762 19.3282 246.524 15.5147 C246.923 13.9981 247.019 11.8311 246.851 10.3789 C246.202 4.76171 241.461 0 236.983 0.50293 C235.397 0.681641 233.605 1.57031 231.983 2.92871 C229.567 4.86816 228.816 6.32617 227.37 11.1973 L225.771 4.80566 L213.316 6.30566 L214.16 17.0967 L220.528 17.0684 Z M191.649 15.3643 C192.659 14.6631 193.477 14.2764 194.101 14.2051 C195.008 14.1055 195.766 14.7061 197.484 16.669 L191.06 24.1612 C189.996 22.9082 189.602 21.9698 189.455 20.712 C189.243 18.8721 190.222 16.4073 191.649 15.3643 Z M197.086 40.5489 C200.09 40.21 206.507 37.625 212.108 34.4444 L209.354 27.4952 C203.207 30.9336 200.327 32.3379 198.628 32.5274 C197.494 32.6553 196.577 32.1709 194.54 30.4395 L207.73 13.9483 C203.13 7.40429 201.093 6.16113 195.707 6.76757 C187.151 7.73046 181.02 16.2676 182.105 25.6592 C183.202 35.1475 189.492 41.4034 197.086 40.5489 Z M120.88 19.0127 L123.243 36.9903 L116.396 39.3301 L117.553 46.8516 L136.524 42.6534 L135.178 34.961 L130.6 35.5733 L129.64 25.7754 C132.245 18.0284 134.153 15.1651 136.815 14.8653 C139.195 14.5977 141.413 17.3897 141.871 21.3575 C142.018 22.6182 142.106 23.8828 142.08 25.1602 L142.073 45.4639 L136.6 47.7481 L137.571 56.1709 L159.704 52.9932 L158.723 43.9815 L150.245 44.6436 L150.184 25.2295 C152.149 20.8877 152.889 19.8233 155.508 18.1563 C156.732 17.3321 157.39 17.0606 158.184 16.9717 C158.692 16.9141 159.271 16.9483 159.918 17.0713 C160.732 17.1768 161.334 17.4024 161.64 17.5645 C162.014 17.8164 162.42 18.3604 162.904 19.0899 C163.471 20.0059 163.675 20.7686 163.763 21.543 C163.831 22.1241 163.861 22.9053 163.859 23.8858 L163.613 30.6807 L157.615 32.4356 L157.662 39.7871 L179.035 38.46 L179.013 30.8116 L171.035 30.8272 L171.154 17.9639 C171.136 15.8086 171.105 14.0479 170.948 12.6905 C170.513 8.91406 169.063 6.82226 166.303 5.76074 C164.443 5.08691 162.758 4.88281 161 5.08105 C158.109 5.40625 155.004 6.83691 152.507 9.07812 C151.429 10.1816 150.136 11.4063 148.66 13.042 C146.254 8.60449 144.861 6.99804 142.573 6.07714 C141.183 5.45019 139.776 5.21484 138.418 5.36621 C133.657 5.90429 131.684 7.69531 128.568 14.5186 L127.718 8.1416 L110.773 10.5391 L111.758 19.0596 L120.88 19.0127 Z M90.8262 22.6553 C91.5068 22.0879 92.2773 21.8047 93.0713 21.7149 C96.0752 21.377 98.8252 23.8145 99.2051 27.1065 C99.7188 31.5606 96.6309 34.6534 90.9102 35.2969 C89.0391 35.5078 87.9307 34.3575 87.6631 32.0342 C87.2939 28.8389 88.7842 24.3555 90.8262 22.6553 Z M89.2764 44.0137 C94.2637 43.4522 100.316 40.711 104.832 37.0674 C107.407 35.0098 108.797 31.127 108.359 27.3516 C107.329 18.4424 99.7832 12.2315 91.1133 13.2071 C86.2393 13.7559 83.4355 16.3272 81.2881 22.0606 C79.5225 26.6739 78.8584 31.3565 79.2959 35.1338 C79.9668 40.9434 84.0635 44.6006 89.2764 44.0137 Z M40.4229 21.6543 L61.1943 20.0928 L26.5088 60.7002 L31.2393 71.334 L66.8271 69.8526 L65.0195 77.0479 L75.5303 78.0987 L82.2363 48.6983 L72.2598 47.2959 L70.3096 55.7715 L42.1768 56.7032 L77.7471 15.3155 L73.1582 7.38574 L44.4932 8.18359 L46.1182 5.37988 L38.0762 0.845703 L27.8154 24.8194 L36.4551 31.0313 L40.4229 21.6543 Z M209.342 82.0186 C209.646 81.2051 209.707 80.3487 209.405 78.9073 C208.58 74.9493 205.565 72.1846 198.24 68.4229 C194.844 66.6758 191.918 65.4854 189.411 64.5889 C186.277 63.5391 184.949 62.5889 184.649 61.1504 C184.462 60.2491 185.757 59.3282 187.524 58.9678 C191.119 58.2364 192.889 58.4395 197.729 60.2686 L196.809 63.5528 L202.015 64.2754 L204.929 47.1709 L200.39 46.2168 L198.643 52.6719 C192.239 51.628 187.965 51.3741 184.941 51.9893 C180.264 52.9414 175.676 56.0323 174.888 58.8213 C174.715 59.417 174.771 60.5323 175.031 61.792 C176.027 66.5625 179.915 69.5245 191.933 74.6768 C198.976 77.6563 200.455 78.4805 200.72 79.7383 C200.851 80.3692 200.581 81.0811 199.991 81.669 C198.942 82.6348 197.818 83.2354 196.679 83.4688 C195.194 83.7715 193.22 83.7061 190.617 83.2022 C188.867 82.8057 188.471 82.6065 187.128 81.003 L189.013 79.4942 L185.909 74.5918 L171.906 86.4463 L175.487 90.7852 L181.2 86.8067 C183.53 88.8672 185.278 90.1065 186.454 90.6172 C187.232 90.9268 189.306 91.1641 192.459 91.1768 C194.303 91.1768 195.993 91.0196 197.534 90.709 C202.327 89.7315 207.792 85.7129 209.342 82.0186 Z M148.321 72.584 C147.963 70.8741 148.77 68.459 150.14 67.335 C151.11 66.5743 151.909 66.1309 152.537 66.002 C153.451 65.8184 154.268 66.3067 156.162 67.9854 L150.213 75.6709 C149.036 74.5967 148.564 73.753 148.321 72.584 Z M157.587 90.4942 C160.61 89.877 166.929 86.8125 172.372 83.2647 L169.045 76.9971 C163.065 80.8418 160.251 82.4473 158.538 82.7959 C157.396 83.0264 156.429 82.6602 154.229 81.2354 L166.36 64.4092 C161.187 58.7061 159.021 57.7403 153.603 58.8438 C144.989 60.5948 139.414 69.2354 141.234 77.9668 C143.074 86.7852 149.939 92.0518 157.587 90.4942 Z M118.739 84.1553 C118.382 82.4473 119.188 80.0303 120.56 78.9063 C121.529 78.1446 122.329 77.7012 122.957 77.5733 C123.871 77.3897 124.688 77.878 126.581 79.5557 L120.633 87.2403 C119.456 86.168 118.983 85.3252 118.739 84.1553 Z M139.463 88.5684 C133.483 92.4131 130.669 94.0186 128.957 94.3682 C127.815 94.5987 126.849 94.2344 124.646 92.8028 L136.777 75.9805 C131.605 70.2784 129.441 69.3106 124.021 70.4131 C115.407 72.167 109.835 80.8067 111.654 89.5381 C113.494 98.3565 120.36 103.621 128.005 102.069 C131.028 101.451 137.347 98.3819 142.792 94.834 L139.463 88.5684 Z M98.1855 49.0801 C95.6221 49.6006 93.0176 51.0899 91.5371 53.0196 C87.623 58.1299 86.0186 70.2412 86.6387 91.8643 L81.9346 94.9307 L85.0938 104.54 L88.8057 102.827 C90.6885 109.822 91.1709 111.546 93.4434 118.077 L89.0811 123.659 L93.6777 132.023 L113.69 116.737 L109.482 108.49 L101.513 112.794 C99.084 106.389 98.5264 104.586 96.6807 97.2022 L105.758 92.3819 L103.336 83.6768 L95.0977 86.6963 C94.9014 73.2246 95.5068 64.1895 96.873 60.8457 C97.5771 59.2647 98.4316 58.419 99.7139 58.1592 C102.919 57.5069 105.648 59.8262 106.513 63.962 C106.992 66.2618 106.426 67.9092 105.026 68.1934 C104.27 68.3487 103.261 68.1709 102.135 67.7286 L101.025 76.3858 C103.702 76.9903 105.779 77.0479 107.353 76.7276 C110.382 76.1133 112.213 73.8213 113.313 68.9024 C113.822 66.6905 113.888 64.377 113.486 62.4473 C111.663 53.7139 104.828 47.7276 98.1855 49.0801 Z M245.582 35.3594 C244.296 35.3594 243.253 36.4014 243.253 37.6885 C243.253 38.9756 244.296 40.0186 245.582 40.0186 C252.665 40.0196 259.059 42.8828 263.703 47.5235 C268.346 52.169 271.21 58.5606 271.211 65.6455 L271.211 132.141 C271.21 139.225 268.346 145.617 263.703 150.263 C259.059 154.905 252.665 157.769 245.582 157.77 L30.2871 157.77 C23.2021 157.769 16.8096 154.905 12.165 150.263 C7.52344 145.617 4.66016 139.225 4.65918 132.141 L4.65918 65.6455 C4.66016 58.5606 7.52344 52.169 12.165 47.5235 C16.8096 42.8828 23.2021 40.0196 30.2871 40.0186 C31.5732 40.0186 32.6172 38.9756 32.6172 37.6885 C32.6172 36.4014 31.5732 35.3594 30.2871 35.3594 C13.5586 35.3604 0.000976563 48.917 0 65.6455 L0 132.141 C0.000976563 148.868 13.5586 162.428 30.2871 162.43 L245.582 162.43 C262.31 162.428 275.868 148.869 275.87 132.141 L275.87 65.6455 C275.868 48.9161 262.309 35.3604 245.582 35.3594 Z M243.096 148.823 C243.418 149.691 244.346 150.237 245.495 150.237 C246.08 150.237 246.646 150.135 247.109 149.953 L246.646 148.339 C246.507 148.378 246.443 148.378 246.344 148.378 C246.122 148.378 245.899 148.28 245.799 148.097 C245.638 147.814 245.616 147.572 245.616 145.795 L245.616 137.744 C245.616 136.29 245.576 135.624 245.477 135.061 L242.712 135.686 C242.813 136.614 242.853 137.443 242.853 138.792 L242.853 146.501 C242.853 147.977 242.893 148.298 243.096 148.823 Z M239.727 149.994 L239.727 142.447 C239.727 141.801 239.664 141.357 239.523 140.974 C239.199 140.084 238.191 139.481 237.042 139.481 C236.436 139.481 235.729 139.641 235.185 139.923 C234.74 140.165 234.396 140.407 233.994 140.691 C233.994 140.267 233.853 139.823 233.61 139.4 L231.21 140.084 C231.45 140.772 231.572 141.619 231.572 142.506 L231.572 149.994 L234.276 149.994 L234.276 142.689 C234.901 142.122 235.607 141.76 236.152 141.76 C236.858 141.76 237.062 142.104 237.062 143.275 L237.062 149.994 L239.727 149.994 Z M225.194 148.521 C225.194 149.51 225.981 150.318 226.972 150.318 C227.938 150.318 228.746 149.51 228.746 148.521 C228.746 147.553 227.938 146.766 226.95 146.766 C225.981 146.766 225.194 147.553 225.194 148.521 Z M218.454 148.723 C218.776 149.629 219.866 150.237 221.239 150.237 C221.945 150.237 222.65 150.095 223.438 149.772 L223.097 148.156 C222.61 148.298 222.369 148.36 222.128 148.36 C221.198 148.36 220.956 148.016 220.956 146.703 L220.956 141.519 L222.692 141.519 L223.379 139.661 L220.956 139.661 C220.956 138.613 221.018 137.482 221.117 136.533 L218.372 137.22 C218.272 137.987 218.272 138.653 218.272 139.661 L217.244 139.661 L217.244 141.519 L218.272 141.519 L218.272 147.128 C218.272 148.076 218.293 148.28 218.454 148.723 Z M211.675 148.32 C210.504 148.32 209.07 147.653 208.243 147.149 L207.275 149.125 C208.789 149.912 210.182 150.318 211.451 150.318 C214.097 150.318 215.872 148.864 215.872 146.725 C215.872 146.038 215.689 145.452 215.307 144.969 C214.942 144.504 214.52 144.12 213.248 143.797 L211.997 143.476 C211.049 143.234 210.706 142.951 210.706 142.427 C210.706 141.821 211.23 141.416 212.019 141.416 C212.784 141.416 213.531 141.64 214.561 142.163 L215.448 140.348 C214.5 139.882 213.409 139.378 211.755 139.378 C209.354 139.378 207.76 140.731 207.76 142.748 C207.76 143.414 207.981 144.16 208.345 144.606 C208.707 145.048 209.557 145.534 210.241 145.655 L211.451 145.876 C212.543 146.078 213.048 146.443 213.048 147.149 C213.048 147.814 212.441 148.32 211.675 148.32 Z M199.868 143.657 C199.868 142.225 200.454 141.416 201.483 141.416 C202.027 141.416 202.411 141.619 202.675 142.024 C202.915 142.406 202.996 142.811 202.996 143.576 L202.996 143.698 L199.868 143.698 L199.868 143.657 Z M205.803 145.676 L205.803 145.048 C205.803 142.891 205.379 141.497 204.43 140.53 C203.764 139.844 202.635 139.44 201.441 139.44 C200.07 139.44 199.04 139.882 198.193 140.83 C197.285 141.84 196.901 143.071 196.901 144.929 C196.901 148.177 198.819 150.277 201.784 150.277 C203.238 150.277 204.489 149.814 205.681 148.844 L204.632 147.23 C203.804 147.915 202.936 148.259 202.008 148.259 C200.614 148.259 199.827 147.35 199.827 145.755 L199.827 145.676 L205.803 145.676 Z M188.991 142.506 C189.215 141.862 189.738 141.456 190.385 141.456 C190.868 141.456 191.294 141.66 191.556 142.002 C191.919 142.467 192.1 143.373 192.1 144.768 C192.1 147.208 191.596 148.259 190.426 148.259 C189.899 148.259 189.295 147.977 189.053 147.41 C188.83 146.886 188.709 145.997 188.709 144.808 C188.709 143.779 188.812 143.052 188.991 142.506 Z M190.346 150.215 C191.938 150.215 192.968 149.67 193.755 148.783 C194.644 147.775 195.047 146.563 195.047 144.787 C195.047 143.113 194.684 141.982 193.855 141.014 C192.968 139.963 191.816 139.459 190.346 139.459 C187.56 139.459 185.702 141.619 185.702 144.868 C185.702 148.117 187.538 150.215 190.346 150.215 Z M179.709 148.32 C178.538 148.32 177.104 147.653 176.277 147.149 L175.31 149.125 C176.823 149.912 178.215 150.318 179.485 150.318 C182.131 150.318 183.906 148.864 183.906 146.725 C183.906 146.038 183.725 145.452 183.342 144.969 C182.979 144.504 182.555 144.12 181.282 143.797 L180.031 143.476 C179.082 143.234 178.74 142.951 178.74 142.427 C178.74 141.821 179.266 141.416 180.052 141.416 C180.818 141.416 181.564 141.64 182.595 142.163 L183.482 140.348 C182.533 139.882 181.443 139.378 179.789 139.378 C177.389 139.378 175.795 140.731 175.795 142.748 C175.795 143.414 176.017 144.16 176.379 144.606 C176.741 145.048 177.591 145.534 178.274 145.655 L179.485 145.876 C180.576 146.078 181.081 146.443 181.081 147.149 C181.081 147.814 180.476 148.32 179.709 148.32 Z M169.216 148.723 C169.539 149.629 170.629 150.237 172.001 150.237 C172.707 150.237 173.412 150.095 174.199 149.772 L173.856 148.156 C173.372 148.298 173.131 148.36 172.889 148.36 C171.961 148.36 171.719 148.016 171.719 146.703 L171.719 141.519 L173.453 141.519 L174.14 139.661 L171.719 139.661 C171.719 138.613 171.777 137.482 171.88 136.533 L169.135 137.22 C169.033 137.987 169.033 138.653 169.033 139.661 L168.006 139.661 L168.006 141.519 L169.033 141.519 L169.033 147.128 C169.033 148.076 169.054 148.28 169.216 148.723 Z M162.435 148.32 C161.264 148.32 159.83 147.653 159.004 147.149 L158.035 149.125 C159.55 149.912 160.94 150.318 162.212 150.318 C164.855 150.318 166.633 148.864 166.633 146.725 C166.633 146.038 166.449 145.452 166.065 144.969 C165.702 144.504 165.279 144.12 164.01 143.797 L162.758 143.476 C161.809 143.234 161.467 142.951 161.467 142.427 C161.467 141.821 161.99 141.416 162.777 141.416 C163.545 141.416 164.292 141.64 165.319 142.163 L166.209 140.348 C165.26 139.882 164.17 139.378 162.516 139.378 C160.113 139.378 158.52 140.731 158.52 142.748 C158.52 143.414 158.741 144.16 159.104 144.606 C159.468 145.048 160.315 145.534 161.002 145.655 L162.212 145.876 C163.302 146.078 163.808 146.443 163.808 147.149 C163.808 147.814 163.201 148.32 162.435 148.32 Z M150.63 143.657 C150.63 142.225 151.216 141.416 152.244 141.416 C152.789 141.416 153.174 141.619 153.436 142.024 C153.678 142.406 153.758 142.811 153.758 143.576 L153.758 143.698 L150.63 143.698 L150.63 143.657 Z M156.563 145.676 L156.563 145.048 C156.563 142.891 156.141 141.497 155.19 140.53 C154.523 139.844 153.395 139.44 152.203 139.44 C150.831 139.44 149.803 139.882 148.954 140.83 C148.047 141.84 147.662 143.071 147.662 144.929 C147.662 148.177 149.58 150.277 152.547 150.277 C154 150.277 155.251 149.814 156.441 148.844 L155.394 147.23 C154.565 147.915 153.696 148.259 152.77 148.259 C151.376 148.259 150.59 147.35 150.59 145.755 L150.59 145.676 L156.563 145.676 Z M139.834 143.657 C139.834 142.225 140.419 141.416 141.447 141.416 C141.991 141.416 142.376 141.619 142.639 142.024 C142.881 142.406 142.962 142.811 142.962 143.576 L142.962 143.698 L139.834 143.698 L139.834 143.657 Z M145.767 145.676 L145.767 145.048 C145.767 142.891 145.343 141.497 144.395 140.53 C143.729 139.844 142.599 139.44 141.406 139.44 C140.034 139.44 139.007 139.882 138.158 140.83 C137.251 141.84 136.867 143.071 136.867 144.929 C136.867 148.177 138.783 150.277 141.752 150.277 C143.204 150.277 144.454 149.814 145.646 148.844 L144.597 147.23 C143.77 147.915 142.9 148.259 141.973 148.259 C140.58 148.259 139.793 147.35 139.793 145.755 L139.793 145.676 L145.767 145.676 Z M134.707 137.019 C135.03 137.019 135.231 137.078 135.816 137.362 L136.686 135.686 C135.857 135.222 135.131 135.04 134.243 135.04 C132.125 135.04 130.913 136.21 130.913 138.248 C130.913 138.712 130.953 139.238 131.015 139.661 L130.025 139.661 L130.025 141.519 L130.953 141.519 L130.953 149.994 L133.598 149.994 L133.598 141.519 L135.515 141.519 L136.2 139.661 L133.577 139.661 L133.577 138.189 C133.577 137.443 134.021 137.019 134.707 137.019 Z M125.889 149.994 L125.889 142.689 C126.395 142.104 126.938 141.821 127.545 141.821 C127.847 141.821 128.068 141.881 128.331 142.024 L129.077 139.641 C128.653 139.459 128.472 139.419 128.068 139.419 C127.767 139.419 127.402 139.481 127.181 139.579 C126.677 139.803 126.03 140.367 125.646 140.893 C125.606 140.307 125.466 139.844 125.224 139.419 L122.802 140.067 C123.022 140.651 123.186 141.7 123.186 143.092 L123.186 149.994 L125.889 149.994 Z M114.669 143.657 C114.669 142.225 115.254 141.416 116.282 141.416 C116.827 141.416 117.212 141.619 117.474 142.024 C117.716 142.406 117.797 142.811 117.797 143.576 L117.797 143.698 L114.669 143.698 L114.669 143.657 Z M120.602 145.676 L120.602 145.048 C120.602 142.891 120.178 141.497 119.229 140.53 C118.563 139.844 117.434 139.44 116.242 139.44 C114.87 139.44 113.842 139.882 112.993 140.83 C112.086 141.84 111.701 143.071 111.701 144.929 C111.701 148.177 113.618 150.277 116.586 150.277 C118.038 150.277 119.29 149.814 120.48 148.844 L119.431 147.23 C118.604 147.915 117.735 148.259 116.808 148.259 C115.415 148.259 114.629 147.35 114.629 145.755 L114.629 145.676 L120.602 145.676 Z M109.118 149.994 L109.118 142.648 C109.118 141.237 108.938 140.629 108.353 140.125 C107.889 139.722 107.121 139.481 106.313 139.481 C105.185 139.481 104.336 139.863 103.389 140.83 C103.267 140.651 103.125 140.469 102.983 140.327 C102.439 139.763 101.732 139.481 100.886 139.481 C99.9375 139.481 99.0693 139.844 98.3633 140.53 C98.2617 140.003 98.1807 139.763 98 139.481 L95.5576 140.147 C95.8398 140.651 95.9404 141.296 95.9404 142.789 L95.9404 149.994 L98.585 149.994 L98.585 142.467 C99.1709 141.942 99.8555 141.68 100.36 141.68 C101.107 141.68 101.289 141.982 101.289 143.275 L101.289 149.994 L103.853 149.994 L103.853 142.568 C104.438 142.042 105.145 141.7 105.647 141.7 C106.354 141.7 106.495 141.942 106.495 143.171 L106.495 149.994 L109.118 149.994 Z M89.8672 142.002 C90.2305 142.467 90.4121 143.373 90.4121 144.768 C90.4121 147.208 89.9082 148.259 88.7373 148.259 C88.2119 148.259 87.6064 147.977 87.3643 147.41 C87.1426 146.886 87.0215 145.997 87.0215 144.808 C87.0215 143.779 87.1221 143.052 87.3037 142.506 C87.5264 141.862 88.0508 141.456 88.6963 141.456 C89.1807 141.456 89.6045 141.66 89.8672 142.002 Z M84.0137 144.868 C84.0137 148.117 85.8516 150.215 88.6563 150.215 C90.25 150.215 91.2803 149.67 92.0674 148.783 C92.9551 147.775 93.3584 146.563 93.3584 144.787 C93.3584 143.113 92.9941 141.982 92.168 141.014 C91.2803 139.963 90.1299 139.459 88.6563 139.459 C85.8721 139.459 84.0137 141.619 84.0137 144.868 Z M74.2695 149.994 L81.8779 149.994 L82.5234 148.117 L77.7813 148.117 L82.3428 141.519 L82.3428 139.661 L74.6738 139.661 L74.6738 141.558 L79.1338 141.558 L74.2695 148.32 L74.2695 149.994 Z M68.8213 148.521 C68.8213 149.51 69.6084 150.318 70.5977 150.318 C71.5654 150.318 72.373 149.51 72.373 148.521 C72.373 147.553 71.5654 146.766 70.5771 146.766 C69.6084 146.766 68.8213 147.553 68.8213 148.521 Z M64.4023 146.725 C64.4023 146.725 64.0996 144.989 63.6357 143.071 L62.8086 139.661 L60.2666 139.661 L59.2969 143.131 C58.8135 144.888 58.5508 146.725 58.5508 146.725 C58.5508 146.725 58.2275 144.705 57.9648 143.516 L57.1182 139.539 L54.4336 139.844 L57.2588 149.994 L59.7813 149.994 L60.3066 147.874 C60.5479 146.906 60.9932 145.13 61.1943 144.242 C61.3555 143.494 61.376 143.355 61.4365 142.91 C61.4971 143.315 61.5166 143.454 61.5977 143.939 C61.7188 144.625 61.9609 145.614 62.1836 146.443 L63.1113 149.994 L65.5938 149.994 L68.5391 139.661 L65.7549 139.661 L64.9688 143.355 C64.6855 144.664 64.4629 146.28 64.4023 146.725 Z M49.5303 146.725 C49.5303 146.725 49.2266 144.989 48.7637 143.071 L47.9355 139.661 L45.3936 139.661 L44.4238 143.131 C43.9395 144.888 43.6777 146.725 43.6777 146.725 C43.6777 146.725 43.3545 144.705 43.0928 143.516 L42.2451 139.539 L39.5605 139.844 L42.3857 149.994 L44.9092 149.994 L45.4336 147.874 C45.6758 146.906 46.1201 145.13 46.3213 144.242 C46.4834 143.494 46.5029 143.355 46.5635 142.91 C46.624 143.315 46.6436 143.454 46.7256 143.939 C46.8467 144.625 47.0889 145.614 47.3105 146.443 L48.2383 149.994 L50.7207 149.994 L53.667 139.661 L50.8818 139.661 L50.0947 143.355 C49.8135 144.664 49.5898 146.28 49.5303 146.725 Z M34.6572 146.725 C34.6572 146.725 34.3545 144.989 33.8896 143.071 L33.0635 139.661 L30.5205 139.661 L29.5518 143.131 C29.0674 144.888 28.8057 146.725 28.8057 146.725 C28.8057 146.725 28.4814 144.705 28.2197 143.516 L27.3721 139.539 L24.6885 139.844 L27.5137 149.994 L30.0352 149.994 L30.5596 147.874 C30.8027 146.906 31.2471 145.13 31.4482 144.242 C31.6104 143.494 31.6309 143.355 31.6904 142.91 C31.752 143.315 31.7715 143.454 31.8525 143.939 C31.9727 144.625 32.2158 145.614 32.4375 146.443 L33.3652 149.994 L35.8477 149.994 L38.7939 139.661 L36.0098 139.661 L35.2227 143.355 C34.9395 144.664 34.7178 146.28 34.6572 146.725 Z M238.251 98.8145 C238.04 100.418 238.04 101.814 238.04 103.924 L235.887 103.924 L235.887 107.809 L238.04 107.809 L238.04 119.547 C238.04 121.532 238.082 121.953 238.421 122.884 C239.096 124.784 241.377 126.051 244.247 126.051 C245.727 126.051 247.203 125.754 248.852 125.078 L248.133 121.7 C247.118 121.995 246.611 122.123 246.104 122.123 C244.162 122.123 243.656 121.405 243.656 118.66 L243.656 107.809 L247.288 107.809 L248.724 103.924 L243.656 103.924 C243.656 101.728 243.782 99.3633 243.994 97.3799 L238.251 98.8145 Z M234.283 118.703 C234.283 117.267 233.903 116.042 233.103 115.03 C232.341 114.058 231.454 113.256 228.794 112.579 L226.177 111.905 C224.191 111.398 223.475 110.808 223.475 109.709 C223.475 108.443 224.571 107.598 226.219 107.598 C227.823 107.598 229.387 108.063 231.539 109.16 L233.396 105.361 C231.411 104.388 229.133 103.331 225.67 103.331 C220.646 103.331 217.31 106.162 217.31 110.385 C217.31 111.779 217.772 113.34 218.532 114.271 C219.294 115.198 221.066 116.21 222.503 116.464 L225.036 116.93 C227.316 117.352 228.371 118.113 228.371 119.589 C228.371 120.983 227.104 122.038 225.5 122.038 C223.052 122.038 220.054 120.646 218.321 119.589 L216.297 123.73 C219.462 125.374 222.377 126.219 225.036 126.219 C230.567 126.219 234.283 123.18 234.283 118.703 Z M202.065 112.284 C202.065 109.286 203.289 107.598 205.442 107.598 C206.584 107.598 207.386 108.021 207.936 108.864 C208.441 109.665 208.61 110.511 208.61 112.116 L208.61 112.369 L202.065 112.369 L202.065 112.284 Z M214.227 123.137 L212.03 119.76 C210.3 121.194 208.483 121.911 206.542 121.911 C203.628 121.911 201.979 120.013 201.979 116.676 L201.979 116.506 L214.479 116.506 L214.479 115.198 C214.479 110.68 213.594 107.767 211.607 105.74 C210.216 104.304 207.852 103.46 205.357 103.46 C202.486 103.46 200.335 104.388 198.562 106.373 C196.66 108.486 195.858 111.061 195.858 114.945 C195.858 121.743 199.869 126.135 206.076 126.135 C209.117 126.135 211.734 125.162 214.227 123.137 Z M183.572 121.911 C182.475 121.911 181.209 121.321 180.699 120.138 C180.236 119.04 179.983 117.183 179.983 114.692 C179.983 112.537 180.193 111.019 180.573 109.877 C181.038 108.527 182.137 107.683 183.487 107.683 C184.501 107.683 185.389 108.105 185.938 108.821 C186.696 109.794 187.077 111.695 187.077 114.607 C187.077 119.717 186.021 121.911 183.572 121.911 Z M190.54 123.011 C192.396 120.899 193.241 118.365 193.241 114.65 C193.241 111.145 192.481 108.78 190.751 106.752 C188.894 104.558 186.484 103.5 183.403 103.5 C177.575 103.5 173.691 108.021 173.691 114.819 C173.691 121.617 177.533 126.007 183.403 126.007 C186.738 126.007 188.894 124.867 190.54 123.011 Z M170.777 116.296 C170.777 111.947 168.159 108.864 163.347 107.556 L159.8 106.584 C157.351 105.909 156.548 105.148 156.548 103.628 C156.548 101.646 158.236 100.251 160.645 100.251 C162.84 100.251 164.823 100.885 167.483 102.488 L170.271 98.2657 C167.695 96.4063 164.064 95.3106 160.475 95.3106 C154.268 95.3106 149.961 99.0264 149.961 104.388 C149.961 106.035 150.384 107.556 151.186 108.864 C152.24 110.639 154.057 111.779 156.972 112.579 L160.222 113.468 C162.84 114.186 164.064 115.367 164.064 117.267 C164.064 119.885 162.289 121.28 158.912 121.28 C155.956 121.28 153.594 120.351 150.847 118.913 L148.651 123.517 C151.607 125.205 155.323 126.176 158.658 126.176 C165.965 126.176 170.777 122.249 170.777 116.296 Z" transform="translate(0, -0.430664)"/>
  </g>
 </g>
</svg>
